<?xml version="1.0" encoding="UTF-8"?>
<svg id="Camada_2" xmlns="http://www.w3.org/2000/svg" xmlns:xlink="http://www.w3.org/1999/xlink" viewBox="0 0 467.72 130.39">
  <defs>
    <style>
      .cls-1 {
        fill: url(#Gradiente_sem_nome-2);
      }

      .cls-2, .cls-3 {
        fill: none;
      }

      .cls-4 {
        fill: url(#Gradiente_sem_nome);
      }

      .cls-5 {
        clip-path: url(#clippath-1);
      }

      .cls-3 {
        clip-rule: evenodd;
      }

      .cls-6 {
        fill: url(#Gradiente_sem_nome-3);
      }

      .cls-7 {
        clip-path: url(#clippath-2);
      }

      .cls-8 {
        clip-path: url(#clippath);
      }
    </style>
    <clipPath id="clippath">
      <path class="cls-3" d="M170.63,79.01l-64.09.02,1.85,25.26c-2.37,15.38-25.7,12.76-27.99-.16l-12.12-68.6c.09-12.19,33.1-16.35,34.23-3.22l1.56,18.13,73.6-11.4c-.03-31.35-32.31-41.08-59.32-38.7-22.65,2-43.86,6.14-60.83,15.58-16.22,9.02-29.2,21.77-35.5,40.5-3.56,10.56-4.08,20.24-2.23,28.87l-.34-.18c.13.12.26.25.38.37.48,2.17,1.11,4.28,1.87,6.31-.3,1.35-.93,2.78-1.8,4.3-2.33,4.06-6.22,7.95-9.74,10.97-2.6,2.24-8.59,6.24-10.18,8.18,5.92,3.02,31.3,1.78,41.84,1.02,43.93,29.5,109.29,10.78,128.79-37.25"/>
    </clipPath>
    <linearGradient id="Gradiente_sem_nome" data-name="Gradiente sem nome" x1="0" y1="71.86" x2="177.69" y2="71.86" gradientUnits="userSpaceOnUse">
      <stop offset="0" stop-color="#811939"/>
      <stop offset="1" stop-color="#a6214b"/>
    </linearGradient>
    <clipPath id="clippath-1">
      <path class="cls-2" d="M195.6,44.6c-.36-.49-.65-1.2-.94-2.12s-.43-1.84-.43-2.83c0-1.84.43-3.18,1.29-3.96.79-.78,1.87-1.2,3.24-1.2h31.36c.36.49.65,1.2.94,2.12s.43,1.84.43,2.83c0,1.84-.43,3.18-1.22,3.96-.86.78-1.94,1.2-3.31,1.2h-7.98v32.67c-.5.14-1.37.28-2.45.42-1.15.14-2.3.21-3.38.21s-2.09-.07-2.88-.21c-.86-.21-1.58-.49-2.16-.92s-1.01-.99-1.29-1.77-.43-1.77-.43-2.97v-27.44h-10.79ZM271.2,77.48c-.5.14-1.22.28-2.23.42-1.08.14-2.16.21-3.24.21s-2.01-.07-2.81-.21c-.86-.14-1.58-.42-2.16-.85s-1.01-.99-1.29-1.77c-.36-.71-.5-1.63-.5-2.83v-15.7c0-1.91-.5-3.32-1.44-4.1-1.01-.78-2.23-1.13-3.67-1.13-.94,0-1.87.14-2.73.35s-1.58.49-2.09.85v24.75c-.5.14-1.22.28-2.23.42-1.08.14-2.16.21-3.24.21s-2.01-.07-2.81-.21c-.86-.14-1.58-.42-2.16-.85s-1.01-.99-1.29-1.77c-.36-.71-.5-1.63-.5-2.83V31.45c.5-.07,1.29-.21,2.37-.42,1.01-.14,2.01-.21,3.09-.21s2.01.07,2.88.21c.79.14,1.51.42,2.09.85.58.42,1.01.99,1.37,1.7.29.78.43,1.7.43,2.9v6.93c.65-.21,1.58-.49,2.88-.85,1.22-.28,2.66-.42,4.17-.42,4.75,0,8.49,1.13,11.15,3.46s3.96,5.87,3.96,10.46v21.42ZM293.14,42.13c2.59,0,4.96.28,7.12.78,2.09.49,3.96,1.27,5.47,2.33s2.66,2.4,3.45,4.03,1.22,3.61,1.22,5.8v15.84c0,1.2-.36,2.19-1.01,2.97-.72.78-1.58,1.48-2.52,2.05-3.09,1.84-7.48,2.76-13.16,2.76-2.52,0-4.82-.21-6.83-.71-2.09-.49-3.81-1.2-5.25-2.12-1.51-.92-2.59-2.12-3.38-3.61s-1.22-3.18-1.22-5.09c0-3.25,1.01-5.73,2.95-7.5s5.04-2.83,9.14-3.25l9.42-.99v-.49c0-1.34-.58-2.33-1.8-2.97-1.22-.57-3.02-.85-5.32-.85-1.8,0-3.6.21-5.32.57s-3.31.85-4.68,1.41c-.65-.42-1.15-1.06-1.58-1.98-.43-.85-.65-1.77-.65-2.69,0-1.2.29-2.19.94-2.97.58-.71,1.51-1.34,2.73-1.84,1.37-.49,3.02-.92,4.96-1.13,1.87-.21,3.67-.35,5.32-.35ZM293.71,69.92c.79,0,1.73-.07,2.73-.28.94-.14,1.65-.35,2.16-.64v-5.66l-5.18.42c-1.37.07-2.45.35-3.31.85s-1.29,1.2-1.29,2.12.36,1.7,1.15,2.26c.72.64,1.94.92,3.74.92ZM317.59,33.64c0-1.77.65-3.32,1.87-4.53,1.22-1.2,2.81-1.84,4.82-1.84s3.67.64,4.89,1.84c1.22,1.2,1.8,2.76,1.8,4.53s-.58,3.32-1.8,4.53-2.88,1.84-4.89,1.84-3.6-.64-4.82-1.84-1.87-2.76-1.87-4.53ZM330.39,77.48c-.5.07-1.29.21-2.3.42-1.08.14-2.09.21-3.16.21s-2.01-.07-2.81-.21c-.86-.14-1.58-.42-2.16-.85s-1.01-.99-1.29-1.77c-.36-.71-.5-1.63-.5-2.83v-28.78c.5-.07,1.29-.21,2.37-.42,1.01-.14,2.01-.21,3.09-.21s2.01.07,2.88.21c.79.14,1.51.42,2.09.85s1.01.99,1.37,1.7c.29.78.43,1.7.43,2.9v28.78ZM360.32,55.77c0-1.48-.43-2.55-1.22-3.25-.86-.64-2.01-.99-3.45-.99-.94,0-1.87.14-2.81.35s-1.8.57-2.45,1.06v24.54c-.5.14-1.22.28-2.23.42-1.08.14-2.16.21-3.24.21s-2.01-.07-2.81-.21c-.86-.14-1.58-.42-2.16-.85s-1.01-.99-1.29-1.77c-.36-.71-.5-1.63-.5-2.83v-21.21c0-1.27.29-2.33.86-3.11.5-.78,1.29-1.56,2.23-2.19,1.65-1.13,3.67-2.05,6.19-2.76,2.45-.71,5.18-1.06,8.2-1.06,5.39,0,9.57,1.13,12.52,3.46s4.39,5.59,4.39,9.76v22.13c-.5.14-1.22.28-2.23.42-1.08.14-2.16.21-3.24.21s-2.01-.07-2.81-.21c-.86-.14-1.58-.42-2.16-.85s-1.01-.99-1.29-1.77c-.36-.71-.5-1.63-.5-2.83v-16.69ZM394.48,42.13c2.59,0,4.96.28,7.12.78,2.09.49,3.96,1.27,5.47,2.33s2.66,2.4,3.45,4.03,1.22,3.61,1.22,5.8v15.84c0,1.2-.36,2.19-1.01,2.97-.72.78-1.58,1.48-2.52,2.05-3.09,1.84-7.48,2.76-13.16,2.76-2.52,0-4.82-.21-6.83-.71-2.09-.49-3.81-1.2-5.25-2.12-1.51-.92-2.59-2.12-3.38-3.61s-1.22-3.18-1.22-5.09c0-3.25,1.01-5.73,2.95-7.5s5.04-2.83,9.14-3.25l9.42-.99v-.49c0-1.34-.58-2.33-1.8-2.97-1.22-.57-3.02-.85-5.32-.85-1.8,0-3.6.21-5.32.57s-3.31.85-4.68,1.41c-.65-.42-1.15-1.06-1.58-1.98-.43-.85-.65-1.77-.65-2.69,0-1.2.29-2.19.94-2.97.58-.71,1.51-1.34,2.73-1.84,1.37-.49,3.02-.92,4.96-1.13,1.87-.21,3.67-.35,5.32-.35ZM397.07,24.95c2.52,0,4.32.49,5.47,1.41,1.08.92,1.65,2.05,1.65,3.39,0,1.2-.36,2.26-1.01,3.04-.65.85-1.8,1.7-3.31,2.47l-9.28,4.81c-1.44-.14-2.66-.71-3.67-1.7s-1.51-2.05-1.51-3.18c0-.57.14-1.13.43-1.7s.79-1.06,1.44-1.56l9.78-7ZM395.05,69.92c.79,0,1.73-.07,2.73-.28.94-.14,1.65-.35,2.16-.64v-5.66l-5.18.42c-1.37.07-2.45.35-3.31.85s-1.29,1.2-1.29,2.12.36,1.7,1.15,2.26c.72.64,1.94.92,3.74.92ZM425.48,47.71c-.5.78-1.15,1.41-1.87,1.77s-1.65.57-2.73.57c-.94,0-1.73-.07-2.52-.28s-1.51-.42-2.23-.78c.22-2.9.5-5.73.72-8.63s.43-5.52.5-7.99c.65-.35,1.58-.71,2.66-1.06,1.08-.35,2.09-.49,3.09-.49.79,0,1.51.07,2.3.21.72.14,1.37.35,1.94.71.58.35,1.01.85,1.37,1.41.36.64.5,1.34.5,2.19,0,.92-.07,1.98-.29,3.11s-.43,2.26-.79,3.39-.79,2.19-1.22,3.25c-.5,1.06-.94,1.91-1.44,2.62ZM461.73,67.3c0,3.61-1.37,6.36-4.1,8.41s-6.76,3.04-12.08,3.04c-2.01,0-3.88-.14-5.61-.42s-3.16-.71-4.39-1.34c-1.22-.57-2.23-1.27-2.88-2.19-.72-.92-1.08-1.98-1.08-3.18,0-1.13.22-2.12.72-2.9s1.08-1.41,1.73-1.91c1.37.78,3.02,1.41,4.82,1.98,1.8.64,3.81.92,6.19.92,1.51,0,2.66-.21,3.45-.64.79-.42,1.15-.99,1.15-1.7,0-.64-.29-1.2-.86-1.56-.58-.35-1.51-.71-2.88-.92l-2.16-.42c-4.17-.78-7.26-2.05-9.28-3.82-2.09-1.7-3.09-4.17-3.09-7.35,0-1.77.36-3.32,1.15-4.74s1.87-2.62,3.24-3.54,3.09-1.7,5.04-2.19,4.03-.78,6.4-.78c1.8,0,3.45.14,5.04.35,1.51.28,2.88.71,4.03,1.2s2.09,1.2,2.73,1.98c.65.85,1.01,1.84,1.01,2.97,0,1.06-.22,1.98-.58,2.76-.43.78-.94,1.48-1.58,1.98-.36-.21-.94-.49-1.73-.78-.79-.21-1.58-.49-2.52-.71s-1.8-.35-2.73-.49-1.8-.21-2.59-.21c-1.58,0-2.81.14-3.67.49s-1.29.92-1.29,1.7c0,.49.22.92.72,1.27s1.37.64,2.73.92l2.23.49c4.6,1.06,7.91,2.47,9.85,4.24,1.94,1.84,2.88,4.17,2.88,7.07Z"/>
    </clipPath>
    <linearGradient id="Gradiente_sem_nome-2" data-name="Gradiente sem nome" x1="194.24" y1="-132.82" x2="461.72" y2="-132.82" xlink:href="#Gradiente_sem_nome"/>
    <clipPath id="clippath-2">
      <path class="cls-2" d="M215.61,100.59l2.19,2.18c-1.68,1.65-4.01,2.68-6.6,2.68-5.15,0-9.37-3.68-9.37-9.45s3.9-9.45,9.37-9.45c2.59,0,4.91,1.02,6.6,2.7l-2.19,2.15c-1.12-1.1-2.7-1.79-4.41-1.79-3.85,0-6.2,2.68-6.2,6.38,0,3.94,2.75,6.38,6.2,6.38,1.71,0,3.28-.68,4.41-1.79ZM244.87,102.11v3.07h-10.04v-18.38h3.12v15.31h6.92ZM270.66,103.06h-6.57l-.8,2.13h-3.36l7.45-18.91,7.48,18.91h-3.36l-.83-2.13ZM265.11,100.41h4.54l-2.27-6.38-2.27,6.38ZM290.12,100.09h3.12c.05,1.52,1.34,2.28,2.72,2.28s2.72-.89,2.72-2.34c0-1.55-1.47-2.52-2.72-2.57-.16,0-1.44,0-2.8-.6-1.95-.89-3.04-2.52-3.04-4.7,0-3.49,2.83-5.62,5.85-5.62,3.23,0,5.71,2.15,5.77,5.28h-3.1c-.05-1.52-1.26-2.21-2.67-2.21s-2.72.84-2.72,2.55c0,1.52,1.34,2.34,2.72,2.34.13,0,1.44,0,2.78.6,1.98.89,3.04,2.76,3.04,4.94,0,3.52-2.8,5.41-5.82,5.41-3.23-.08-5.79-1.92-5.85-5.36ZM318.45,100.09h3.12c.05,1.52,1.34,2.28,2.72,2.28s2.72-.89,2.72-2.34c0-1.55-1.47-2.52-2.72-2.57-.16,0-1.44,0-2.8-.6-1.95-.89-3.04-2.52-3.04-4.7,0-3.49,2.83-5.62,5.85-5.62,3.23,0,5.71,2.15,5.77,5.28h-3.1c-.05-1.52-1.26-2.21-2.67-2.21s-2.72.84-2.72,2.55c0,1.52,1.34,2.34,2.72,2.34.13,0,1.44,0,2.78.6,1.98.89,3.04,2.76,3.04,4.94,0,3.52-2.8,5.41-5.82,5.41-3.23-.08-5.79-1.92-5.85-5.36ZM353.07,97.52h-2.54v7.67h-3.12v-18.38h6.22s6.25,0,6.25,5.36c0,2.97-1.92,4.28-3.6,4.88l3.82,8.14h-3.44l-3.58-7.67ZM350.54,94.47h3.1s3.12,0,3.12-2.31-3.12-2.28-3.12-2.28h-3.1v4.6ZM385.75,105.42c-12.34,0-12.31-18.85,0-18.85s12.28,18.85,0,18.85ZM385.75,89.56c-8.06,0-8.09,12.89,0,12.89s8.09-12.89,0-12.89ZM420.86,105.42c-12.34,0-12.31-18.85,0-18.85s12.28,18.85,0,18.85ZM420.86,89.56c-8.06,0-8.09,12.89,0,12.89s8.09-12.89,0-12.89ZM467.72,105.19h-3.12v-11.29l-5.37,11.29h-2.94l-5.71-11.53v11.53h-3.12v-18.41h3.18l7.1,14.31,6.81-14.31h3.18v18.41Z"/>
    </clipPath>
    <linearGradient id="Gradiente_sem_nome-3" data-name="Gradiente sem nome" x1="201.83" y1="-132.82" x2="467.71" y2="-132.82" xlink:href="#Gradiente_sem_nome"/>
  </defs>
  <g id="Camada_1-2" data-name="Camada_1">
    <g>
      <g class="cls-8">
        <rect class="cls-4" y="-2.04" width="177.69" height="147.8"/>
      </g>
      <g class="cls-5">
        <rect class="cls-1" x="-63.58" y="-553.76" width="595.28" height="841.89"/>
      </g>
      <g class="cls-7">
        <rect class="cls-6" x="-63.58" y="-553.76" width="595.28" height="841.89"/>
      </g>
    </g>
  </g>
</svg>